<svg xmlns="http://www.w3.org/2000/svg" xmlns:xlink="http://www.w3.org/1999/xlink" version="1.1" width="256" height="256" viewBox="0 0 256 256" xml:space="preserve">

<defs>
</defs>
<g style="stroke: none; stroke-width: 0; stroke-dasharray: none; stroke-linecap: butt; stroke-linejoin: miter; stroke-miterlimit: 10; fill: none; fill-rule: nonzero; opacity: 1;" transform="translate(1.4065934065934016 1.4065934065934016) scale(2.81 2.81)" >
	<path d="M 45 0 C 20.147 0 0 20.147 0 45 c 0 24.853 20.147 45 45 45 s 45 -20.147 45 -45 C 90 20.147 69.853 0 45 0 z" style="stroke: none; stroke-width: 1; stroke-dasharray: none; stroke-linecap: butt; stroke-linejoin: miter; stroke-miterlimit: 10; fill: rgb(248,195,65); fill-rule: nonzero; opacity: 1;" transform=" matrix(1 0 0 1 0 0) " stroke-linecap="round" />
	<path d="M 45 10 c -19.33 0 -35 15.67 -35 35 c 0 19.33 15.67 35 35 35 s 35 -15.67 35 -35 C 80 25.67 64.33 10 45 10 z" style="stroke: none; stroke-width: 1; stroke-dasharray: none; stroke-linecap: butt; stroke-linejoin: miter; stroke-miterlimit: 10; fill: rgb(206,140,0); fill-rule: nonzero; opacity: 1;" transform=" matrix(1 0 0 1 0 0) " stroke-linecap="round" />
	<polygon points="73.42,18.09 78.94,19.85 74.48,23.55 72.72,29.07 69.02,24.61 63.5,22.84 67.96,19.14 69.72,13.63 " style="stroke: none; stroke-width: 1; stroke-dasharray: none; stroke-linecap: butt; stroke-linejoin: miter; stroke-miterlimit: 10; fill: rgb(255,237,154); fill-rule: nonzero; opacity: 1;" transform="  matrix(1 0 0 1 0 0) "/>
	<polygon points="81.31,35.82 83.27,38.73 79.76,38.81 76.85,40.77 76.77,37.26 74.81,34.35 78.32,34.27 81.24,32.31 " style="stroke: none; stroke-width: 1; stroke-dasharray: none; stroke-linecap: butt; stroke-linejoin: miter; stroke-miterlimit: 10; fill: rgb(255,237,154); fill-rule: nonzero; opacity: 1;" transform="  matrix(1 0 0 1 0 0) "/>
	<path d="M 58.115 32.89 c 0 -4.284 -3.707 -7.769 -8.264 -7.769 h -3.369 v -3.717 h -6 v 3.717 h -8.597 v 39.758 h 8.597 v 3.717 h 6 v -3.717 h 3.369 c 4.557 0 8.264 -3.485 8.264 -7.77 v -7.341 c 0 -1.796 -0.651 -3.452 -1.744 -4.769 c 1.093 -1.317 1.744 -2.973 1.744 -4.769 V 32.89 z M 52.115 57.11 c 0 0.959 -1.037 1.77 -2.264 1.77 H 37.885 v -10.88 h 11.966 c 1.227 0 2.264 0.811 2.264 1.77 V 57.11 z M 52.115 40.231 c 0 0.959 -1.037 1.769 -2.264 1.769 H 37.885 V 31.121 h 11.966 c 1.227 0 2.264 0.81 2.264 1.769 V 40.231 z" style="stroke: none; stroke-width: 1; stroke-dasharray: none; stroke-linecap: butt; stroke-linejoin: miter; stroke-miterlimit: 10; fill: rgb(248,195,65); fill-rule: nonzero; opacity: 1;" transform=" matrix(1 0 0 1 0 0) " stroke-linecap="round" />
</g>
</svg>